<?xml version="1.0" encoding="utf-8"?>
<!-- Generator: Adobe Illustrator 27.5.0, SVG Export Plug-In . SVG Version: 6.00 Build 0)  -->
<svg version="1.1" id="Capa_1" xmlns="http://www.w3.org/2000/svg" xmlns:xlink="http://www.w3.org/1999/xlink" x="0px" y="0px"
	 viewBox="0 0 425.197 425.197" style="enable-background:new 0 0 425.197 425.197;" xml:space="preserve">
<rect y="0" style="fill:#FFFFFF;" width="425.197" height="425.197"/>
<radialGradient id="SVGID_1_" cx="-2020.0801" cy="5330.1587" r="79.4786" gradientTransform="matrix(2.2257 0 0 0.3312 4710.4023 -1407.6759)" gradientUnits="userSpaceOnUse">
	<stop  offset="0.0588" style="stop-color:#0F0D03"/>
	<stop  offset="0.1131" style="stop-color:#322D26"/>
	<stop  offset="0.1734" style="stop-color:#57504A"/>
	<stop  offset="0.2385" style="stop-color:#7D7670"/>
	<stop  offset="0.3075" style="stop-color:#A19A97"/>
	<stop  offset="0.3816" style="stop-color:#C1BCBA"/>
	<stop  offset="0.4626" style="stop-color:#DCD8D7"/>
	<stop  offset="0.5542" style="stop-color:#F0EDED"/>
	<stop  offset="0.6652" style="stop-color:#FBFAFA"/>
	<stop  offset="0.8495" style="stop-color:#FFFDFE"/>
</radialGradient>
<path style="opacity:0.4;fill:url(#SVGID_1_);" d="M391.201,357.672c0,14.537-79.197,26.324-176.891,26.324
	c-97.694,0-176.892-11.788-176.892-26.324c0-14.536,79.197-26.324,176.892-26.324C312.004,331.349,391.201,343.136,391.201,357.672z
	"/>
<g>
	<g>
		<path style="fill:#2B242A;" d="M175.893,350.708c-1.625,2.39-3.863,3.698-5.004,2.922l-12.493-8.495
			c-1.139-0.775-0.746-3.338,0.879-5.729l0,0c1.625-2.389,3.865-3.696,5.002-2.922l12.494,8.494
			C177.911,345.755,177.518,348.319,175.893,350.708L175.893,350.708z"/>
		<path style="fill:#95C11F;" d="M158.657,337.029c0,0-1.222,4.821,7.209,10.555c8.432,5.733,12.465,2.823,12.465,2.823
			s35.785-57.223,40.712-64.469c4.929-7.247-8.646-18.661-14.59-9.921C198.512,284.756,158.657,337.029,158.657,337.029z"/>
		<path style="fill:#FFFFFF;" d="M176.767,349.073c6.192-9.894,35.154-56.144,39.549-62.607c0.033-0.049,0.055-0.097,0.086-0.144
			C208.12,285.838,175.347,347.902,176.767,349.073z"/>
		<path style="fill:#BBCBC8;" d="M176.626,347.309c-2.631-2.851-4.535-6.218-4.606-10.193c-0.091-5.067,1.704-9.917,3.706-14.491
			c4.736-10.833,10.434-20.938,19.7-28.537c6.825-5.596,15.203-9.994,24.215-9.281c2.965-7.22-9.546-17.086-15.188-8.789
			c-5.941,8.738-45.796,61.012-45.796,61.012s-1.222,4.821,7.209,10.555c8.432,5.733,12.465,2.823,12.465,2.823
			s0.211-0.336,0.596-0.954C178.097,348.786,177.318,348.059,176.626,347.309z"/>
		<g>
			<path style="fill:#FFFFFF;" d="M181.091,345.999l-19.6-2.134c0.693,0.772,1.553,1.582,2.61,2.421l15.735,1.713
				C180.198,347.423,180.616,346.752,181.091,345.999z"/>
			<path style="fill:#FFFFFF;" d="M186.283,337.709l-25.987-2.832c-0.755,0.994-1.273,1.674-1.503,1.973l26.237,2.857
				C185.436,339.061,185.854,338.395,186.283,337.709z"/>
			<path style="fill:#FFFFFF;" d="M193.188,326.704l-24.635-2.684c-0.514,0.676-1.013,1.336-1.499,1.974l24.879,2.709
				C192.347,328.042,192.765,327.376,193.188,326.704z"/>
			<path style="fill:#FFFFFF;" d="M200.104,315.7l-23.319-2.54c-0.502,0.664-1.001,1.323-1.494,1.974l23.556,2.566
				C199.266,317.033,199.684,316.366,200.104,315.7z"/>
			<path style="fill:#FFFFFF;" d="M207.041,304.699l-22.05-2.401c-0.494,0.656-0.99,1.314-1.488,1.976l22.274,2.424
				C206.204,306.022,206.624,305.358,207.041,304.699z"/>
			<path style="fill:#FFFFFF;" d="M214.017,293.702l-20.862-2.272c-0.485,0.647-0.979,1.307-1.479,1.976l21.067,2.293
				C213.184,295.007,213.608,294.34,214.017,293.702z"/>
			<path style="fill:#FFFFFF;" d="M215.82,282.142l-14.604-1.592c-0.454,0.619-0.938,1.281-1.451,1.979l19.798,2.157L215.82,282.142
				z"/>
		</g>
		<path style="fill:#352E35;" d="M225.173,275.397c5.493-8.079,67.849-37.837,84.979-45.582c-5.493-2.862-46.289,2.896-46.289,2.896
			s10.135,3.448,0.104,9.006c-13.757,7.625-30.02,16.02-33.245,17.68c-5.155,2.654-6.982,0.192-6.444-4.33
			c0.327-2.747,2.157-21.117,4.511-37.271c1.18-8.095,8.61-2.972,8.61-2.972s-10.919-55.621-14.514-44.349
			c0.242,21.876-5.249,86.953-11.22,95.735C205.691,274.998,219.678,283.479,225.173,275.397z"/>
		<path style="fill:#95C11F;" d="M246.563,119.788c23.946-35.216,66.196-48.235,94.369-29.079
			c26.708,18.161,31.172,58.722,11.16,92.895c2.091,1.11,4.335,2.085,6.294,3.391c22.343-38.131,17.367-83.397-12.439-103.664
			c-31.433-21.373-78.57-6.848-105.286,32.443c-3.215,4.729-5.982,9.6-8.32,14.549c2.089,1.186,4.331,2.051,6.529,3
			C241.012,128.718,243.573,124.184,246.563,119.788z"/>
		<g>
			<path style="fill:#9D9D9C;" d="M359.684,114.14l-1.064,1.566l-6.29-4.276l3.434-5.049c-0.241-0.395-0.485-0.786-0.735-1.174
				l-3.747,5.51l-6.289-4.276l4.277-6.29l4.304,2.925c-0.804-1.118-1.649-2.206-2.537-3.257l-1.054-0.716l0.191-0.281
				c-0.29-0.325-0.582-0.648-0.879-0.964l-0.361,0.531l-6.289-4.276l0.977-1.438c-0.332-0.26-0.672-0.515-1.012-0.767l-1.014,1.491
				l-6.291-4.277l0.864-1.271c-0.377-0.199-0.755-0.395-1.138-0.584l-0.774,1.141l-5.508-3.745
				c-1.306-0.441-2.628-0.828-3.965-1.163l1.421,0.966l-4.277,6.291l-6.288-4.277l2.828-4.16c-0.474-0.06-0.948-0.113-1.423-0.161
				l-2.454,3.609l-5.648-3.842c-0.857,0.035-1.716,0.085-2.577,0.155l-4.103,6.035l-6.29-4.277l0.027-0.041
				c-0.621,0.154-1.242,0.316-1.864,0.488l-4.201,6.178l-4.593-3.124c-0.463,0.192-0.922,0.39-1.383,0.593l5.263,3.58l-4.276,6.29
				l-6.29-4.277l3.116-4.584c-0.773,0.372-1.546,0.753-2.315,1.153l-1.85,2.719l-1.388-0.944c-0.403,0.234-0.806,0.47-1.207,0.712
				l1.882,1.28l-4.276,6.29l-4.424-3.008c-0.359,0.265-0.717,0.532-1.073,0.803l4.784,3.252l-4.277,6.291l-6.29-4.278l0.781-1.15
				c-1.455,1.287-2.88,2.632-4.273,4.032l-2.546,3.744l-0.605-0.412c-0.286,0.315-0.571,0.632-0.852,0.954l0.744,0.507l-4.276,6.29
				l-1.268-0.863c-0.253,0.338-0.503,0.68-0.75,1.023l1.306,0.888l-4.277,6.29l-1.255-0.853c-0.22,0.361-0.443,0.722-0.659,1.084
				l1.202,0.817l-4.277,6.29l-0.569-0.387c-0.189,0.384-0.373,0.771-0.556,1.156l0.412,0.28l-1.641,2.413
				c-0.822,1.88-1.573,3.772-2.255,5.669l6.244,4.246l-4.277,6.291l-4.326-2.941c-0.113,0.437-0.224,0.872-0.33,1.308l3.943,2.682
				l-4.276,6.29l-1.252-0.851c-0.066,0.468-0.131,0.937-0.189,1.404l0.728,0.495l-0.945,1.39c-0.089,0.862-0.159,1.719-0.22,2.576
				l2.212-3.254l6.29,4.277l-4.275,6.289l-4.413-3c-0.007,0.511-0.01,1.021-0.007,1.528l3.707,2.52l-3.297,4.849
				c0.105,1.001,0.232,1.996,0.38,2.981l5.692,3.87l-3.625,5.331c0.156,0.516,0.316,1.028,0.487,1.537l4.185-6.155l6.292,4.277
				l-4.277,6.29l-6.119-4.161c0.23,0.682,0.476,1.357,0.729,2.028l4.677,3.18l-1.975,2.906c0.217,0.425,0.442,0.846,0.671,1.264
				l2.352-3.458l6.29,4.276l-4.137,6.082c1.211,1.57,2.513,3.066,3.901,4.488l2.584,1.757l-0.299,0.439
				c0.317,0.286,0.637,0.567,0.961,0.843l0.387-0.569l6.29,4.277l-0.537,0.79c0.36,0.224,0.722,0.445,1.086,0.658l0.5-0.735
				l5.467,3.717c1.576,0.663,3.184,1.241,4.811,1.739l-2.227-1.514l4.276-6.289l6.288,4.275l-3.269,4.808
				c0.453,0.091,0.907,0.173,1.363,0.251l2.955-4.345l6.288,4.276l-0.586,0.863c0.511,0.008,1.019,0.009,1.53,0.004l0.104-0.154
				l0.222,0.151c0.717-0.013,1.435-0.032,2.154-0.069l-1.663-1.13l4.276-6.29l6.292,4.277l-1.579,2.323
				c0.582-0.099,1.166-0.205,1.749-0.319l0.878-1.29l1.235,0.84c0.554-0.128,1.107-0.263,1.66-0.406l-2.183-1.483l3.85-5.662
				l6.291,4.277l-0.292,0.429c0.7-0.266,1.399-0.541,2.097-0.829l4.232-6.225l3.61,2.455c0.412-0.227,0.824-0.458,1.236-0.692
				l-4.135-2.811l4.278-6.29l5.66,3.849l-1.992,2.929c0.951-0.613,1.895-1.247,2.829-1.904l0.211-0.311l0.116,0.079
				c0.367-0.26,0.732-0.522,1.096-0.788l-0.499-0.339l4.277-6.29l2.417,1.644c0.325-0.289,0.65-0.577,0.975-0.87l-2.679-1.821
				l4.277-6.29l3.922,2.667c0.29-0.313,0.583-0.623,0.87-0.942l-4.079-2.774l4.276-6.289l4.713,3.204
				c0.257-0.334,0.512-0.674,0.766-1.012l-4.766-3.241l4.276-6.29l4.816,3.274c0.228-0.356,0.454-0.714,0.677-1.073l-4.78-3.25
				l4.277-6.29l4.257,2.894c0.195-0.38,0.385-0.762,0.572-1.144l-4.116-2.799l4.277-6.291l2.988,2.032
				c0.159-0.404,0.316-0.808,0.47-1.213l-2.746-1.866l4.277-6.29l0.957,0.651c0.121-0.431,0.238-0.861,0.353-1.293l-0.597-0.406
				l1.116-1.642c0.268-1.111,0.512-2.221,0.73-3.331l-2.896,4.259l-5.66-3.849l4.277-6.29l4.765,3.241
				c0.077-0.463,0.148-0.924,0.216-1.386l-4.268-2.903l4.276-6.29l0.809,0.55c0.021-0.502,0.032-1.004,0.044-1.503l-0.14-0.095
				l0.146-0.215c0.013-0.755,0.013-1.508,0.002-2.257l-1.196,1.76l-6.29-4.277l4.276-6.29l2.787,1.895
				c-0.061-0.559-0.129-1.116-0.204-1.671l-1.871-1.271l1.354-1.992c-0.107-0.585-0.224-1.169-0.345-1.747l-2.058,3.026
				l-6.291-4.277l4.277-6.291l2.564,1.743c-0.209-0.665-0.429-1.325-0.656-1.979l-1.195-0.812l0.582-0.857
				C360.067,115.084,359.88,114.61,359.684,114.14z M242.679,144.181l-6.291-4.277l4.277-6.29l6.291,4.277L242.679,144.181z
				 M247.669,136.842l-6.291-4.278l4.275-6.289l6.292,4.277L247.669,136.842z M252.658,129.504l-6.292-4.277l4.277-6.29l6.291,4.277
				L252.658,129.504z M257.647,122.166l-6.291-4.277l4.277-6.29l6.291,4.278L257.647,122.166z M262.638,114.828l-6.291-4.277
				l4.277-6.29l6.29,4.277L262.638,114.828z M240.036,163.846l-6.29-4.277l4.277-6.29l6.29,4.278L240.036,163.846z M245.026,156.508
				l-6.29-4.277l4.277-6.291l6.29,4.277L245.026,156.508z M250.016,149.17l-6.29-4.277l4.276-6.29l6.291,4.277L250.016,149.17z
				 M255.007,141.831l-6.291-4.277l4.277-6.289l6.29,4.277L255.007,141.831z M259.996,134.494l-6.29-4.277l4.277-6.29l6.289,4.277
				L259.996,134.494z M264.985,127.155l-6.291-4.277l4.277-6.29l6.29,4.277L264.985,127.155z M269.975,119.817l-6.29-4.277
				l4.277-6.291l6.29,4.277L269.975,119.817z M274.965,112.479l-6.29-4.277l4.277-6.29l6.29,4.277L274.965,112.479z M279.955,105.14
				l-6.29-4.277l4.277-6.29l6.289,4.277L279.955,105.14z M237.823,182.883l-6.29-4.277l3.85-5.661l6.289,4.277L237.823,182.883z
				 M242.385,176.174l-6.289-4.277l4.276-6.29l6.291,4.277L242.385,176.174z M247.376,168.836l-6.291-4.277l4.276-6.29l6.29,4.277
				L247.376,168.836z M252.364,161.499l-6.29-4.277l4.277-6.29l6.29,4.277L252.364,161.499z M257.354,154.16l-6.291-4.277
				l4.277-6.29l6.291,4.277L257.354,154.16z M262.345,146.821l-6.291-4.277l4.277-6.29l6.29,4.277L262.345,146.821z
				 M267.334,139.483l-6.29-4.277l4.276-6.291l6.291,4.277L267.334,139.483z M272.323,132.145l-6.289-4.277l4.275-6.29l6.291,4.277
				L272.323,132.145z M277.313,124.807l-6.291-4.277l4.277-6.29l6.291,4.277L277.313,124.807z M282.304,117.468l-6.291-4.277
				l4.277-6.29l6.29,4.277L282.304,117.468z M287.293,110.13l-6.29-4.277l4.277-6.289l6.289,4.277L287.293,110.13z M292.282,102.792
				l-6.289-4.277l4.276-6.29l6.29,4.277L292.282,102.792z M297.272,95.454l-6.29-4.277l4.277-6.29l6.29,4.277L297.272,95.454z
				 M245.163,187.874l-6.292-4.278l3.85-5.661l6.291,4.277L245.163,187.874z M249.724,181.165l-6.29-4.278l4.277-6.29l6.29,4.278
				L249.724,181.165z M254.714,173.827l-6.291-4.278l4.276-6.29l6.292,4.277L254.714,173.827z M259.704,166.488l-6.292-4.277
				l4.277-6.291l6.292,4.277L259.704,166.488z M264.693,159.15l-6.291-4.277l4.277-6.291l6.291,4.278L264.693,159.15z
				 M269.684,151.811l-6.291-4.277l4.276-6.29l6.291,4.278L269.684,151.811z M274.673,144.474l-6.291-4.277l4.276-6.29l6.292,4.278
				L274.673,144.474z M279.663,137.135l-6.291-4.277l4.277-6.29l6.29,4.278L279.663,137.135z M284.652,129.797l-6.29-4.277
				l4.276-6.291l6.291,4.278L284.652,129.797z M289.642,122.459l-6.292-4.278l4.277-6.29l6.291,4.277L289.642,122.459z
				 M294.632,115.12l-6.291-4.277l4.277-6.29l6.291,4.277L294.632,115.12z M299.621,107.783l-6.29-4.278l4.277-6.29l6.29,4.277
				L299.621,107.783z M304.611,100.444l-6.29-4.277l4.276-6.29l6.291,4.277L304.611,100.444z M309.6,93.106l-6.291-4.278l4.278-6.29
				l6.29,4.277L309.6,93.106z M247.509,200.202l-6.29-4.276l4.277-6.29l6.29,4.276L247.509,200.202z M252.499,192.863l-6.289-4.277
				l3.85-5.661l6.289,4.276L252.499,192.863z M257.06,186.153l-6.288-4.277l4.276-6.29l6.289,4.277L257.06,186.153z
				 M262.051,178.815l-6.289-4.276l4.276-6.29l6.289,4.276L262.051,178.815z M267.04,171.477l-6.289-4.276l4.277-6.29l6.289,4.276
				L267.04,171.477z M272.029,164.139l-6.289-4.276l4.277-6.29l6.29,4.276L272.029,164.139z M277.02,156.8l-6.288-4.277l4.275-6.289
				l6.291,4.276L277.02,156.8z M282.009,149.462l-6.289-4.276l4.277-6.291l6.289,4.277L282.009,149.462z M286.999,142.124
				l-6.289-4.276l4.276-6.29l6.29,4.276L286.999,142.124z M291.989,134.786l-6.29-4.277l4.277-6.29l6.29,4.276L291.989,134.786z
				 M296.979,127.448l-6.289-4.277l4.275-6.29l6.29,4.276L296.979,127.448z M301.969,120.109l-6.29-4.276l4.277-6.29l6.29,4.276
				L301.969,120.109z M306.959,112.771l-6.29-4.276l4.277-6.291l6.289,4.276L306.959,112.771z M311.948,105.433l-6.289-4.276
				l4.277-6.29l6.289,4.276L311.948,105.433z M316.938,98.095l-6.289-4.277l4.276-6.29l6.29,4.276L316.938,98.095z M249.857,212.529
				l-6.289-4.276l4.276-6.289l6.289,4.276L249.857,212.529z M254.847,205.192l-6.289-4.276l4.277-6.29l6.289,4.276L254.847,205.192z
				 M259.837,197.853l-6.289-4.277l3.85-5.661l6.289,4.276L259.837,197.853z M264.399,191.143l-6.289-4.277l4.276-6.289l6.289,4.276
				L264.399,191.143z M269.389,183.805l-6.289-4.276l4.277-6.29l6.288,4.276L269.389,183.805z M274.378,176.467l-6.289-4.276
				l4.277-6.291l6.289,4.276L274.378,176.467z M279.368,169.128l-6.289-4.276l4.276-6.291l6.29,4.276L279.368,169.128z
				 M284.358,161.79l-6.289-4.276l4.276-6.29l6.29,4.277L284.358,161.79z M289.349,154.452l-6.29-4.276l4.277-6.29l6.288,4.277
				L289.349,154.452z M294.337,147.114l-6.289-4.276l4.276-6.29l6.29,4.276L294.337,147.114z M299.327,139.776l-6.289-4.277
				l4.276-6.29l6.29,4.276L299.327,139.776z M304.317,132.438l-6.29-4.276l4.277-6.291l6.29,4.276L304.317,132.438z
				 M309.308,125.099l-6.29-4.276l4.276-6.291l6.289,4.276L309.308,125.099z M314.297,117.761l-6.29-4.276l4.277-6.29l6.29,4.276
				L314.297,117.761z M319.287,110.422l-6.29-4.276l4.277-6.291l6.289,4.277L319.287,110.422z M324.275,103.085l-6.288-4.277
				l4.277-6.29l6.289,4.276L324.275,103.085z M329.266,95.747l-6.289-4.276l4.276-6.29l6.29,4.276L329.266,95.747z M257.196,217.52
				l-6.29-4.277l4.276-6.289l6.291,4.277L257.196,217.52z M262.186,210.182l-6.291-4.277l4.277-6.29l6.291,4.277L262.186,210.182z
				 M267.176,202.843l-6.289-4.277l3.85-5.661l6.289,4.277L267.176,202.843z M271.738,196.133l-6.29-4.277l4.277-6.29l6.29,4.277
				L271.738,196.133z M276.728,188.795l-6.289-4.277l4.276-6.29l6.29,4.277L276.728,188.795z M281.717,181.458l-6.289-4.277
				l4.277-6.291l6.289,4.277L281.717,181.458z M286.708,174.119l-6.291-4.277l4.277-6.29l6.29,4.277L286.708,174.119z
				 M291.697,166.78l-6.29-4.277l4.277-6.29l6.289,4.277L291.697,166.78z M296.686,159.442l-6.29-4.277l4.277-6.29l6.29,4.277
				L296.686,159.442z M301.677,152.104l-6.29-4.277l4.276-6.29l6.291,4.277L301.677,152.104z M306.667,144.766l-6.291-4.277
				l4.277-6.29l6.291,4.277L306.667,144.766z M311.656,137.428l-6.29-4.277l4.276-6.29l6.291,4.277L311.656,137.428z
				 M316.646,130.089l-6.291-4.277l4.277-6.29l6.29,4.277L316.646,130.089z M321.636,122.751l-6.29-4.277l4.276-6.29l6.291,4.277
				L321.636,122.751z M326.626,115.413l-6.291-4.277l4.277-6.29l6.291,4.277L326.626,115.413z M331.614,108.075l-6.289-4.277
				l4.277-6.291l6.29,4.277L331.614,108.075z M336.604,100.737l-6.291-4.277l4.277-6.29l6.291,4.277L336.604,100.737z
				 M264.534,222.509l-6.289-4.276l4.276-6.289l6.289,4.276L264.534,222.509z M269.523,215.171l-6.29-4.276l4.277-6.29l6.29,4.276
				L269.523,215.171z M274.514,207.832l-6.289-4.276l3.849-5.662l6.29,4.276L274.514,207.832z M279.076,201.123l-6.289-4.277
				l4.276-6.29l6.289,4.276L279.076,201.123z M284.065,193.784l-6.289-4.276l4.276-6.29l6.29,4.276L284.065,193.784z
				 M289.055,186.446l-6.289-4.276l4.277-6.291l6.289,4.276L289.055,186.446z M294.045,179.108l-6.289-4.276l4.277-6.29l6.288,4.277
				L294.045,179.108z M299.035,171.769l-6.289-4.276l4.276-6.29l6.289,4.277L299.035,171.769z M304.024,164.431l-6.289-4.276
				l4.276-6.29l6.289,4.276L304.024,164.431z M309.014,157.093l-6.289-4.276l4.277-6.289l6.288,4.276L309.014,157.093z
				 M314.005,149.755l-6.29-4.276l4.276-6.29l6.289,4.276L314.005,149.755z M318.993,142.417l-6.289-4.276l4.277-6.29l6.289,4.276
				L318.993,142.417z M323.983,135.079l-6.289-4.276l4.276-6.291l6.29,4.277L323.983,135.079z M328.974,127.74l-6.29-4.276
				l4.277-6.29l6.29,4.276L328.974,127.74z M333.962,120.402l-6.288-4.277l4.276-6.29l6.289,4.276L333.962,120.402z
				 M338.952,113.064l-6.289-4.276l4.277-6.291l6.289,4.276L338.952,113.064z M343.942,105.726l-6.289-4.276l4.277-6.29l6.289,4.276
				L343.942,105.726z M276.861,220.161l-6.288-4.276l4.277-6.291l6.288,4.276L276.861,220.161z M281.853,212.822l-6.289-4.276
				l3.85-5.661l6.289,4.276L281.853,212.822z M286.414,206.112l-6.288-4.276l4.277-6.29l6.288,4.276L286.414,206.112z
				 M291.404,198.774l-6.289-4.276l4.277-6.29l6.288,4.276L291.404,198.774z M296.393,191.436l-6.289-4.275l4.277-6.291l6.289,4.275
				L296.393,191.436z M301.383,184.098l-6.288-4.276l4.277-6.29l6.288,4.276L301.383,184.098z M306.373,176.759l-6.288-4.276
				l4.276-6.289l6.288,4.276L306.373,176.759z M311.362,169.421l-6.288-4.276l4.276-6.29l6.289,4.276L311.362,169.421z
				 M316.353,162.083l-6.289-4.276l4.277-6.29l6.288,4.276L316.353,162.083z M321.342,154.745l-6.288-4.276l4.277-6.29l6.288,4.275
				L321.342,154.745z M326.333,147.407l-6.29-4.276l4.277-6.29l6.288,4.276L326.333,147.407z M331.321,140.068l-6.288-4.275
				l4.276-6.29l6.289,4.275L331.321,140.068z M336.311,132.73l-6.289-4.276l4.277-6.29l6.289,4.276L336.311,132.73z
				 M341.302,125.392l-6.289-4.276l4.277-6.29l6.289,4.276L341.302,125.392z M346.291,118.054l-6.29-4.276l4.279-6.291l6.287,4.276
				L346.291,118.054z M284.199,225.151l-6.288-4.276l4.277-6.29l6.288,4.277L284.199,225.151z M289.19,217.811l-6.289-4.276
				l3.85-5.662l6.289,4.276L289.19,217.811z M293.753,211.102l-6.289-4.276l4.275-6.29l6.29,4.276L293.753,211.102z
				 M298.742,203.764l-6.29-4.276l4.278-6.29l6.288,4.277L298.742,203.764z M303.731,196.426l-6.289-4.277l4.277-6.29l6.289,4.277
				L303.731,196.426z M308.722,189.087l-6.289-4.276l4.276-6.29l6.289,4.276L308.722,189.087z M313.712,181.749l-6.289-4.276
				l4.276-6.289l6.289,4.276L313.712,181.749z M318.701,174.411l-6.289-4.277l4.276-6.29l6.289,4.276L318.701,174.411z
				 M323.69,167.073l-6.289-4.276l4.276-6.29l6.29,4.276L323.69,167.073z M328.681,159.734l-6.289-4.276l4.276-6.29l6.289,4.276
				L328.681,159.734z M333.67,152.396l-6.289-4.276l4.277-6.29l6.289,4.276L333.67,152.396z M338.659,145.059l-6.288-4.277
				l4.276-6.291l6.289,4.277L338.659,145.059z M343.649,137.719l-6.289-4.276l4.277-6.291l6.289,4.277L343.649,137.719z
				 M348.64,130.381l-6.29-4.276l4.277-6.29l6.29,4.276L348.64,130.381z M353.628,123.044l-6.289-4.276l4.278-6.291l6.29,4.276
				L353.628,123.044z M353.673,156.799l5.66,3.849l-4.276,6.29l-5.661-3.849L353.673,156.799z M348.684,164.137l5.66,3.849
				l-4.278,6.29l-5.659-3.849L348.684,164.137z M343.693,171.476l5.66,3.849l-4.276,6.29l-5.66-3.849L343.693,171.476z
				 M338.704,178.814l5.66,3.849l-4.277,6.29l-5.66-3.849L338.704,178.814z M333.714,186.152l5.66,3.849l-4.276,6.289l-5.661-3.848
				L333.714,186.152z M328.724,193.491l5.66,3.849l-4.277,6.29l-5.66-3.849L328.724,193.491z M323.735,200.828l5.659,3.849
				l-4.276,6.29l-5.66-3.849L323.735,200.828z M356.314,137.132l6.289,4.277l-4.276,6.29l-6.29-4.277L356.314,137.132z
				 M351.324,144.471l6.29,4.277l-4.277,6.29l-6.29-4.277L351.324,144.471z M346.335,151.809l6.289,4.277l-4.276,6.29l-6.29-4.277
				L346.335,151.809z M341.345,159.148l6.29,4.277l-4.277,6.291l-6.289-4.277L341.345,159.148z M336.355,166.486l6.289,4.277
				l-4.276,6.29l-6.29-4.277L336.355,166.486z M331.365,173.824l6.29,4.277l-4.277,6.29l-6.289-4.278L331.365,173.824z
				 M326.376,181.163l6.289,4.277l-4.275,6.289l-6.291-4.277L326.376,181.163z M321.386,188.501l6.29,4.277l-4.277,6.29l-6.29-4.277
				L321.386,188.501z M316.396,195.838l6.291,4.277l-4.277,6.291l-6.291-4.277L316.396,195.838z M311.405,203.177l6.291,4.277
				l-4.276,6.29l-6.29-4.277L311.405,203.177z M306.417,210.515l6.29,4.277l-4.276,6.29l-6.291-4.277L306.417,210.515z
				 M296.529,222.802l-6.29-4.278l3.849-5.661l6.291,4.278L296.529,222.802z M301.092,216.092l-6.291-4.278l4.276-6.29l6.292,4.277
				L301.092,216.092z M306.081,208.754l-6.291-4.278l4.277-6.289l6.29,4.277L306.081,208.754z M311.07,201.416l-6.29-4.277
				l4.277-6.291l6.29,4.277L311.07,201.416z M316.06,194.078l-6.29-4.278l4.276-6.289l6.291,4.277L316.06,194.078z M321.051,186.739
				l-6.29-4.278l4.276-6.289l6.29,4.277L321.051,186.739z M326.04,179.402l-6.291-4.278l4.277-6.29l6.29,4.277L326.04,179.402z
				 M331.029,172.064l-6.29-4.278l4.276-6.29l6.291,4.278L331.029,172.064z M336.02,164.725l-6.29-4.278l4.276-6.29l6.291,4.277
				L336.02,164.725z M341.009,157.387l-6.29-4.278l4.276-6.29l6.291,4.277L341.009,157.387z M345.999,150.048l-6.291-4.277
				l4.277-6.29l6.29,4.277L345.999,150.048z M350.989,142.71l-6.291-4.278l4.277-6.29l6.291,4.278L350.989,142.71z M360.255,129.082
				l-4.275,6.289l-6.292-4.277l4.277-6.29L360.255,129.082z"/>
		</g>
		<path style="fill:#352E35;" d="M360.69,182.855c-2.392-0.531-4.744-1.173-7.013-2.06c-1.532,2.831-3.229,5.625-5.093,8.364
			c-23.946,35.216-66.195,48.235-94.369,29.079c-25.68-17.461-30.794-55.628-13.363-88.916c-2.238-0.907-4.809-2.069-6.39-3.241
			c-19.654,37.217-13.998,79.995,14.737,99.534c31.433,21.373,78.571,6.85,105.288-32.441
			C356.782,189.8,358.845,186.351,360.69,182.855z"/>
		<g>
			<path style="fill:#D1D1D1;" d="M245.042,122.103l-6.626-2.885c-3.007,4.801-5.568,9.731-7.695,14.721l6.612,2.879
				C239.411,131.82,241.981,126.888,245.042,122.103z"/>
			<path style="fill:#D1D1D1;" d="M350.568,186.119l6.616,2.879c2.967-4.821,5.494-9.766,7.577-14.772l-6.628-2.886
				C356.103,176.355,353.585,181.308,350.568,186.119z"/>
		</g>
		<path style="fill:#FFFFFF;" d="M341.949,88.586c27.722,18.85,31.929,61.292,10.035,96.038c0.65-0.886,1.292-1.785,1.916-2.704
			c23.438-34.468,18.272-76.53-10.209-95.896c-28.479-19.365-70.201-4.63-91.156,22.358c-5.678,7.313-10.743,15.247-16.027,26.284
			c2.511-4.257,11.858-20.642,20.565-29.779C281.531,79.213,317.126,71.708,341.949,88.586z"/>
		<path style="fill:#2B242A;" d="M251.268,223.274c-29.007-19.724-26.831-55.2-26.177-69.116
			c-7.248,27.876,1.79,56.28,24.434,71.677c24.82,16.877,58.607,9.952,81.36-8.394C316.802,226.605,277.243,240.938,251.268,223.274
			z"/>
		<path style="fill:#2B242A;" d="M226.897,276.57c-0.678,0.996-2.149,1.174-3.288,0.399l-12.494-8.496
			c-1.138-0.773-1.513-2.207-0.836-3.203l0,0c0.675-0.993,2.146-1.172,3.285-0.398l12.493,8.495
			C227.197,274.142,227.573,275.576,226.897,276.57L226.897,276.57z"/>
		
			<rect x="211.12" y="266.854" transform="matrix(0.5623 -0.8269 0.8269 0.5623 -133.7052 298.7559)" style="fill:#161013;" width="8.466" height="17.644"/>
		<path style="fill:#2B242A;" d="M221.282,284.827c-0.676,0.994-2.148,1.172-3.287,0.398l-12.494-8.495
			c-1.139-0.773-1.513-2.208-0.836-3.203l0,0c0.676-0.994,2.146-1.172,3.284-0.398l12.494,8.496
			C221.583,282.399,221.958,283.833,221.282,284.827L221.282,284.827z"/>
	</g>
	<g>
		<path style="fill:#2B242A;" d="M272.656,335.686c1.733,2.312,2.243,4.855,1.142,5.681l-12.09,9.062
			c-1.102,0.826-3.4-0.377-5.133-2.689l0,0c-1.733-2.313-2.243-4.855-1.141-5.682l12.09-9.061
			C268.626,332.171,270.923,333.374,272.656,335.686L272.656,335.686z"/>
		<path style="fill:#A1D2D9;" d="M254.126,347.551c0,0,4.162,2.721,12.322-3.395c8.157-6.115,6.715-10.875,6.715-10.875
			s-42.516-52.417-47.77-59.429c-5.256-7.011-20.459,2.127-14.12,10.583C217.611,292.892,254.126,347.551,254.126,347.551z"/>
		<path style="fill:#FFFFFF;" d="M271.392,334.327c-7.347-9.066-41.699-51.467-46.387-57.722c-0.034-0.046-0.073-0.083-0.108-0.128
			C221.753,284.152,269.825,335.292,271.392,334.327z"/>
		<path style="fill:#BACDD8;" d="M269.68,333.89c-3.55,1.563-7.353,2.272-11.136,1.049c-4.822-1.558-8.827-4.83-12.507-8.207
			c-8.708-7.996-16.42-16.663-20.599-27.894c-3.078-8.273-4.521-17.623-0.922-25.917c-5.868-5.146-19.26,3.486-13.243,11.515
			c6.338,8.456,42.852,63.115,42.852,63.115s4.162,2.721,12.322-3.395c8.157-6.115,6.715-10.875,6.715-10.875
			s-0.249-0.308-0.708-0.873C271.554,332.978,270.614,333.477,269.68,333.89z"/>
		<g>
			<path style="fill:#FFFFFF;" d="M269.89,329.241l-8.379,17.847c0.955-0.406,2-0.956,3.137-1.684l6.728-14.328
				C270.946,330.547,270.447,329.933,269.89,329.241z"/>
			<path style="fill:#FFFFFF;" d="M263.731,321.639l-11.109,23.662c0.694,1.038,1.169,1.749,1.378,2.063l11.216-23.89
				C264.737,322.88,264.241,322.269,263.731,321.639z"/>
			<path style="fill:#FFFFFF;" d="M255.563,311.538L245.03,333.97c0.473,0.704,0.934,1.392,1.381,2.058l10.636-22.653
				C256.557,312.767,256.061,312.155,255.563,311.538z"/>
			<path style="fill:#FFFFFF;" d="M247.398,301.425l-9.968,21.232c0.464,0.69,0.924,1.376,1.381,2.055l10.07-21.448
				C248.388,302.65,247.892,302.038,247.398,301.425z"/>
			<path style="fill:#FFFFFF;" d="M239.242,291.295l-9.425,20.076c0.46,0.682,0.923,1.363,1.385,2.05l9.523-20.284
				C240.225,292.515,239.731,291.902,239.242,291.295z"/>
			<path style="fill:#FFFFFF;" d="M231.104,281.128l-8.918,18.996c0.454,0.669,0.918,1.35,1.39,2.039l9.005-19.184
				C232.068,282.338,231.577,281.721,231.104,281.128z"/>
			<path style="fill:#FFFFFF;" d="M220.756,275.669l-6.245,13.3c0.44,0.628,0.909,1.302,1.402,2.014l8.463-18.026L220.756,275.669z"
				/>
		</g>
		<path style="fill:#259DAB;" d="M217.411,264.636c-5.859-7.817-13.773-76.453-15.542-95.172
			c-4.489,4.268-12.28,44.725-12.28,44.725s6.549-8.467,8.553,2.823c2.749,15.488,5.413,33.594,5.936,37.184
			c0.837,5.738-2.084,6.667-6.186,4.69c-2.493-1.201-19.275-8.893-33.791-16.36c-7.275-3.742-0.018-9.108-0.018-9.108
			s-56.154-7.72-46.657-0.662c20.772,6.868,80.545,33.18,86.914,41.677C210.711,282.933,223.272,272.457,217.411,264.636z"/>
		<g>
			<path style="fill:#DADADA;" d="M108.523,85.079l1.136,1.515l-6.087,4.561l-3.661-4.884c-0.45,0.098-0.9,0.203-1.348,0.313
				l3.996,5.331l-6.088,4.562l-4.561-6.086l4.165-3.122c-1.319,0.397-2.624,0.843-3.905,1.343l-1.021,0.764l-0.204-0.271
				c-0.398,0.168-0.799,0.338-1.195,0.518l0.385,0.514l-6.086,4.562l-1.042-1.39c-0.355,0.23-0.705,0.468-1.054,0.708l1.08,1.443
				l-6.085,4.562l-0.921-1.229c-0.311,0.293-0.618,0.587-0.921,0.886l0.827,1.103l-5.33,3.995c-0.842,1.093-1.636,2.218-2.387,3.373
				l1.376-1.03l4.562,6.086l-6.086,4.562l-3.017-4.025c-0.211,0.429-0.416,0.861-0.614,1.295l2.616,3.491l-5.467,4.097
				c-0.245,0.823-0.475,1.651-0.688,2.488l4.377,5.839l-6.086,4.561l-0.03-0.04c-0.057,0.639-0.104,1.28-0.143,1.922l4.48,5.978
				l-4.446,3.333c0.034,0.5,0.069,1,0.112,1.5l5.095-3.818l4.563,6.086l-6.087,4.563l-3.325-4.436
				c0.101,0.853,0.21,1.708,0.337,2.565l1.973,2.632l-1.341,1.005c0.089,0.459,0.183,0.916,0.281,1.374l1.82-1.365l4.562,6.087
				l-4.279,3.208c0.134,0.425,0.271,0.851,0.412,1.276l4.628-3.469l4.562,6.086l-6.086,4.561l-0.834-1.113
				c0.746,1.793,1.555,3.579,2.426,5.351l2.715,3.623l-0.586,0.439c0.208,0.372,0.415,0.744,0.626,1.116l0.721-0.54l4.563,6.086
				l-1.227,0.919c0.237,0.349,0.48,0.696,0.724,1.042l1.264-0.947l4.561,6.086l-1.213,0.91c0.27,0.326,0.539,0.654,0.813,0.975
				l1.161-0.87l4.563,6.087L86,204.135c0.302,0.304,0.608,0.602,0.913,0.9l0.396-0.298l1.75,2.335
				c1.514,1.387,3.061,2.71,4.632,3.972l6.042-4.529l4.563,6.087l-4.186,3.137c0.375,0.249,0.753,0.494,1.129,0.737l3.816-2.859
				l4.562,6.085l-1.209,0.907c0.421,0.216,0.843,0.428,1.267,0.635l0.703-0.527l1.008,1.345c0.787,0.363,1.576,0.708,2.366,1.042
				l-2.358-3.148l6.086-4.562l4.562,6.086l-4.271,3.201c0.48,0.174,0.963,0.339,1.444,0.501l3.587-2.688l3.516,4.692
				c0.981,0.225,1.963,0.428,2.943,0.608l5.508-4.128l3.866,5.159c0.538,0.02,1.076,0.032,1.613,0.038l-4.466-5.957l6.088-4.562
				l4.561,6.087l-5.92,4.437c0.721,0.003,1.436-0.009,2.154-0.031l4.526-3.393l2.107,2.813c0.473-0.068,0.943-0.145,1.415-0.226
				l-2.508-3.346l6.086-4.562l4.41,5.886c1.878-0.635,3.716-1.38,5.512-2.233l2.501-1.875l0.318,0.424
				c0.371-0.206,0.741-0.417,1.108-0.634l-0.412-0.55l6.086-4.562l0.572,0.763c0.328-0.267,0.654-0.537,0.976-0.813l-0.532-0.711
				l5.29-3.965c1.136-1.277,2.206-2.609,3.206-3.989l-2.157,1.617l-4.562-6.086l6.086-4.561l3.486,4.651
				c0.233-0.398,0.459-0.801,0.68-1.206l-3.151-4.205l6.086-4.562l0.626,0.835c0.173-0.479,0.341-0.962,0.502-1.448l-0.112-0.149
				l0.213-0.16c0.223-0.682,0.437-1.368,0.635-2.06l-1.607,1.205l-4.563-6.087l6.086-4.562l1.686,2.249
				c0.094-0.585,0.186-1.172,0.265-1.761l-0.936-1.248l1.196-0.896c0.059-0.565,0.11-1.133,0.156-1.702l-2.113,1.583l-4.107-5.479
				l6.087-4.562l0.311,0.415c-0.023-0.748-0.059-1.499-0.105-2.253l-4.514-6.022l3.495-2.619c-0.081-0.464-0.166-0.928-0.255-1.394
				l-4,2.999l-4.562-6.086l5.478-4.106l2.124,2.833c-0.271-1.097-0.565-2.195-0.884-3.292l-0.227-0.301l0.114-0.085
				c-0.128-0.432-0.257-0.862-0.392-1.292l-0.482,0.362l-4.563-6.087l2.34-1.753c-0.166-0.401-0.334-0.803-0.507-1.204l-2.594,1.943
				l-4.561-6.087l3.797-2.845c-0.2-0.376-0.4-0.753-0.607-1.129l-3.949,2.96l-4.563-6.087l4.563-3.419
				c-0.232-0.352-0.473-0.703-0.71-1.052l-4.612,3.457l-4.562-6.087l4.662-3.494c-0.266-0.33-0.528-0.661-0.797-0.988l-4.626,3.467
				l-4.561-6.086l4.12-3.088c-0.297-0.308-0.596-0.61-0.896-0.913l-3.985,2.987l-4.562-6.087l2.894-2.168
				c-0.331-0.282-0.663-0.561-0.995-0.838l-2.659,1.993l-4.561-6.086l0.927-0.694c-0.368-0.255-0.738-0.506-1.108-0.754
				l-0.578,0.434l-1.19-1.588c-0.964-0.614-1.935-1.204-2.912-1.773l3.089,4.121l-5.48,4.106l-4.563-6.086l4.613-3.457
				c-0.413-0.222-0.826-0.439-1.24-0.656l-4.132,3.098l-4.563-6.086l0.784-0.587c-0.469-0.182-0.938-0.357-1.408-0.53l-0.137,0.102
				l-0.156-0.209c-0.709-0.256-1.42-0.5-2.132-0.734l1.275,1.702l-6.087,4.563l-4.561-6.086l2.696-2.021
				c-0.55-0.124-1.098-0.24-1.647-0.349l-1.81,1.356l-1.444-1.927c-0.588-0.089-1.178-0.168-1.765-0.241l2.194,2.928l-6.086,4.562
				l-4.563-6.088l2.479-1.858c-0.697-0.019-1.392-0.025-2.087-0.021l-1.152,0.865l-0.621-0.829
				C109.543,85.022,109.032,85.047,108.523,85.079z M98.973,205.501l-6.086,4.561l-4.562-6.086l6.086-4.562L98.973,205.501z
				 M93.651,198.4l-6.086,4.561l-4.563-6.087l6.086-4.561L93.651,198.4z M88.329,191.3l-6.086,4.561l-4.563-6.087l6.086-4.561
				L88.329,191.3z M83.007,184.199l-6.086,4.561l-4.562-6.086l6.086-4.561L83.007,184.199z M77.685,177.098l-6.086,4.561
				l-4.563-6.087l6.086-4.561L77.685,177.098z M116.719,214.38l-6.086,4.562l-4.562-6.085l6.087-4.563L116.719,214.38z
				 M111.396,207.279l-6.086,4.562l-4.562-6.087l6.086-4.562L111.396,207.279z M106.075,200.178l-6.087,4.562l-4.563-6.087
				l6.087-4.561L106.075,200.178z M100.753,193.078l-6.086,4.563l-4.563-6.088l6.086-4.562L100.753,193.078z M95.431,185.977
				l-6.087,4.562l-4.561-6.086l6.086-4.562L95.431,185.977z M90.109,178.876l-6.087,4.562l-4.563-6.086l6.087-4.561L90.109,178.876z
				 M84.786,171.775l-6.086,4.562l-4.563-6.087l6.086-4.561L84.786,171.775z M79.464,164.674l-6.086,4.563l-4.562-6.086l6.087-4.562
				L79.464,164.674z M74.142,157.573l-6.087,4.562l-4.562-6.087l6.086-4.562L74.142,157.573z M134.008,222.652l-6.086,4.561
				l-4.106-5.479l6.086-4.561L134.008,222.652z M129.141,216.159l-6.085,4.561l-4.563-6.086l6.086-4.561L129.141,216.159z
				 M123.819,209.059l-6.086,4.562l-4.562-6.086l6.086-4.561L123.819,209.059z M118.497,201.958l-6.086,4.562l-4.563-6.087
				l6.086-4.562L118.497,201.958z M113.175,194.857l-6.086,4.561l-4.562-6.086l6.086-4.561L113.175,194.857z M107.853,187.756
				l-6.086,4.561l-4.563-6.087l6.086-4.561L107.853,187.756z M102.531,180.655l-6.086,4.561l-4.563-6.087l6.086-4.561
				L102.531,180.655z M97.208,173.554l-6.086,4.562l-4.561-6.086l6.086-4.561L97.208,173.554z M91.887,166.454l-6.086,4.562
				l-4.563-6.087l6.086-4.562L91.887,166.454z M86.563,159.353l-6.086,4.561l-4.561-6.086l6.086-4.561L86.563,159.353z
				 M81.242,152.252l-6.086,4.561l-4.561-6.087l6.085-4.562L81.242,152.252z M75.92,145.151l-6.086,4.562l-4.562-6.087l6.085-4.561
				L75.92,145.151z M70.598,138.05l-6.086,4.561l-4.562-6.086l6.086-4.562L70.598,138.05z M141.109,217.33l-6.087,4.561
				l-4.105-5.479l6.086-4.563L141.109,217.33z M136.242,210.836l-6.086,4.562l-4.562-6.086l6.086-4.562L136.242,210.836z
				 M130.921,203.735l-6.086,4.563l-4.563-6.086l6.087-4.563L130.921,203.735z M125.599,196.635l-6.086,4.562l-4.563-6.087
				l6.086-4.561L125.599,196.635z M120.276,189.534l-6.086,4.563l-4.562-6.086l6.086-4.562L120.276,189.534z M114.954,182.433
				l-6.086,4.563l-4.563-6.087l6.086-4.563L114.954,182.433z M109.633,175.333l-6.087,4.562l-4.563-6.087l6.087-4.562
				L109.633,175.333z M104.31,168.232l-6.086,4.562l-4.561-6.086l6.086-4.562L104.31,168.232z M98.988,161.131l-6.086,4.562
				l-4.563-6.087l6.086-4.562L98.988,161.131z M93.667,154.03l-6.088,4.562l-4.561-6.086l6.086-4.562L93.667,154.03z
				 M88.344,146.929l-6.087,4.562l-4.563-6.087l6.087-4.561L88.344,146.929z M83.021,139.828l-6.087,4.563l-4.562-6.087l6.087-4.562
				L83.021,139.828z M77.699,132.727l-6.087,4.562l-4.562-6.086l6.087-4.561L77.699,132.727z M72.378,125.627l-6.087,4.562
				l-4.563-6.087l6.087-4.562L72.378,125.627z M153.532,219.109l-6.086,4.561l-4.563-6.087l6.086-4.561L153.532,219.109z
				 M148.21,212.008l-6.086,4.561l-4.107-5.479l6.086-4.562L148.21,212.008z M143.343,205.515l-6.086,4.561l-4.562-6.086
				l6.086-4.562L143.343,205.515z M138.02,198.414l-6.086,4.562l-4.56-6.086l6.085-4.562L138.02,198.414z M132.699,191.314
				l-6.086,4.561l-4.563-6.087l6.086-4.561L132.699,191.314z M127.376,184.212l-6.086,4.561l-4.561-6.086l6.086-4.561
				L127.376,184.212z M122.055,177.112l-6.086,4.562l-4.563-6.087l6.086-4.561L122.055,177.112z M116.731,170.011l-6.084,4.561
				l-4.563-6.087l6.086-4.561L116.731,170.011z M111.41,162.91l-6.086,4.561l-4.562-6.086l6.086-4.561L111.41,162.91z
				 M106.089,155.809l-6.086,4.562l-4.563-6.087l6.086-4.562L106.089,155.809z M100.766,148.708l-6.086,4.561l-4.562-6.086
				l6.086-4.561L100.766,148.708z M95.444,141.607l-6.086,4.562l-4.563-6.087l6.086-4.561L95.444,141.607z M90.121,134.506
				l-6.085,4.562l-4.563-6.086l6.086-4.562L90.121,134.506z M84.8,127.406l-6.086,4.561l-4.562-6.086l6.086-4.561L84.8,127.406z
				 M79.478,120.305l-6.086,4.562l-4.562-6.087l6.085-4.562L79.478,120.305z M165.956,220.886l-6.088,4.563l-4.563-6.086
				l6.088-4.562L165.956,220.886z M160.634,213.787l-6.087,4.562l-4.563-6.087l6.087-4.562L160.634,213.787z M155.311,206.685
				l-6.088,4.563l-4.107-5.479l6.087-4.563L155.311,206.685z M150.445,200.192l-6.089,4.563l-4.561-6.086l6.087-4.563
				L150.445,200.192z M145.122,193.091l-6.087,4.563l-4.561-6.086l6.088-4.562L145.122,193.091z M139.801,185.991l-6.087,4.563
				l-4.563-6.087l6.087-4.563L139.801,185.991z M134.479,178.889l-6.088,4.563l-4.561-6.086l6.088-4.563L134.479,178.889z
				 M129.156,171.789l-6.087,4.563l-4.563-6.087l6.087-4.563L129.156,171.789z M123.835,164.688l-6.089,4.563l-4.562-6.086
				l6.088-4.563L123.835,164.688z M118.512,157.587l-6.087,4.563l-4.562-6.086l6.087-4.563L118.512,157.587z M113.19,150.487
				l-6.088,4.563l-4.562-6.087l6.087-4.563L113.19,150.487z M107.867,143.385l-6.087,4.563l-4.562-6.086l6.088-4.562
				L107.867,143.385z M102.546,136.285l-6.088,4.562l-4.562-6.086l6.087-4.563L102.546,136.285z M97.224,129.184l-6.088,4.563
				l-4.561-6.086l6.086-4.563L97.224,129.184z M91.901,122.083l-6.087,4.562l-4.563-6.086l6.088-4.562L91.901,122.083z
				 M86.579,114.982l-6.087,4.563l-4.563-6.088l6.089-4.563L86.579,114.982z M81.257,107.881l-6.088,4.562l-4.562-6.086l6.088-4.563
				L81.257,107.881z M173.055,215.565l-6.085,4.561l-4.561-6.086l6.085-4.561L173.055,215.565z M167.734,208.465l-6.086,4.561
				l-4.563-6.087l6.086-4.561L167.734,208.465z M162.411,201.364l-6.086,4.561l-4.106-5.479l6.086-4.561L162.411,201.364z
				 M157.544,194.87l-6.086,4.562l-4.561-6.087l6.086-4.561L157.544,194.87z M152.223,187.77l-6.086,4.561l-4.562-6.086l6.086-4.561
				L152.223,187.77z M146.901,180.669l-6.086,4.562l-4.563-6.088l6.086-4.561L146.901,180.669z M141.578,173.568l-6.086,4.561
				l-4.561-6.086l6.086-4.561L141.578,173.568z M136.257,166.467l-6.086,4.561l-4.563-6.087l6.086-4.561L136.257,166.467z
				 M130.934,159.367l-6.086,4.562l-4.563-6.087l6.086-4.561L130.934,159.367z M125.612,152.266l-6.086,4.562l-4.562-6.086
				l6.086-4.562L125.612,152.266z M120.29,145.165l-6.086,4.561l-4.562-6.087l6.085-4.561L120.29,145.165z M114.968,138.064
				l-6.086,4.562l-4.562-6.086l6.086-4.562L114.968,138.064z M109.646,130.963l-6.086,4.561l-4.562-6.087l6.086-4.561
				L109.646,130.963z M104.323,123.862l-6.086,4.562l-4.562-6.087l6.085-4.562L104.323,123.862z M99.002,116.761l-6.086,4.562
				l-4.562-6.086l6.086-4.562L99.002,116.761z M93.68,109.661l-6.086,4.562l-4.563-6.087l6.088-4.562L93.68,109.661z
				 M88.357,102.559l-6.086,4.562l-4.562-6.086l6.085-4.561L88.357,102.559z M180.156,210.243l-6.086,4.561l-4.562-6.086
				l6.086-4.562L180.156,210.243z M174.835,203.143l-6.086,4.562l-4.563-6.087l6.086-4.561L174.835,203.143z M169.513,196.042
				l-6.087,4.561l-4.105-5.479l6.086-4.561L169.513,196.042z M164.645,189.548l-6.086,4.562l-4.561-6.086l6.084-4.562
				L164.645,189.548z M159.323,182.448l-6.085,4.561l-4.562-6.086l6.086-4.562L159.323,182.448z M154.002,175.347l-6.087,4.562
				l-4.563-6.087l6.088-4.561L154.002,175.347z M148.68,168.246l-6.086,4.562l-4.562-6.087l6.085-4.561L148.68,168.246z
				 M143.356,161.145l-6.084,4.562l-4.563-6.087l6.085-4.562L143.356,161.145z M138.035,154.044l-6.086,4.562l-4.563-6.087
				l6.087-4.561L138.035,154.044z M132.714,146.943l-6.086,4.561l-4.563-6.086l6.086-4.562L132.714,146.943z M127.391,139.843
				l-6.085,4.561l-4.563-6.087l6.085-4.562L127.391,139.843z M122.068,132.742l-6.085,4.562l-4.562-6.086l6.086-4.562
				L122.068,132.742z M116.746,125.641l-6.085,4.562l-4.563-6.086l6.086-4.562L116.746,125.641z M111.425,118.54l-6.086,4.561
				l-4.563-6.086l6.086-4.561L111.425,118.54z M106.103,111.439l-6.086,4.562l-4.562-6.086l6.085-4.562L106.103,111.439z
				 M100.781,104.339l-6.087,4.561l-4.563-6.087l6.086-4.562L100.781,104.339z M95.458,97.237l-6.086,4.562l-4.562-6.087
				l6.086-4.561L95.458,97.237z M181.936,197.82l-6.088,4.563l-4.563-6.087l6.088-4.562L181.936,197.82z M176.613,190.719
				l-6.087,4.562l-4.105-5.479l6.086-4.562L176.613,190.719z M171.746,184.226l-6.086,4.563l-4.563-6.086l6.087-4.562
				L171.746,184.226z M166.425,177.126l-6.088,4.561l-4.56-6.085l6.086-4.562L166.425,177.126z M161.102,170.025l-6.087,4.562
				l-4.561-6.087l6.086-4.561L161.102,170.025z M155.78,162.923l-6.086,4.562l-4.563-6.086l6.087-4.562L155.78,162.923z
				 M150.458,155.823l-6.087,4.561l-4.562-6.087l6.086-4.562L150.458,155.823z M145.136,148.722l-6.086,4.562l-4.563-6.086
				l6.087-4.562L145.136,148.722z M139.813,141.622l-6.086,4.562l-4.563-6.086l6.088-4.562L139.813,141.622z M134.492,134.521
				l-6.087,4.562l-4.563-6.087l6.087-4.562L134.492,134.521z M129.169,127.42l-6.086,4.562l-4.561-6.086l6.086-4.562L129.169,127.42
				z M123.847,120.318l-6.086,4.562l-4.563-6.086l6.087-4.562L123.847,120.318z M118.525,113.218l-6.086,4.562l-4.563-6.086
				l6.087-4.562L118.525,113.218z M113.203,106.117l-6.087,4.563l-4.561-6.086l6.086-4.563L113.203,106.117z M107.882,99.017
				l-6.087,4.562l-4.563-6.087l6.086-4.562L107.882,99.017z M189.036,192.499l-6.087,4.562l-4.563-6.087l6.087-4.562
				L189.036,192.499z M183.714,185.398l-6.087,4.562l-4.106-5.479l6.086-4.563L183.714,185.398z M178.847,178.904l-6.087,4.562
				l-4.562-6.086l6.087-4.562L178.847,178.904z M173.524,171.804l-6.087,4.562l-4.562-6.086l6.088-4.561L173.524,171.804z
				 M168.203,164.703l-6.087,4.562l-4.563-6.087l6.087-4.562L168.203,164.703z M162.88,157.602l-6.086,4.562l-4.561-6.086
				l6.086-4.562L162.88,157.602z M157.559,150.501l-6.087,4.562l-4.563-6.087l6.087-4.562L157.559,150.501z M152.236,143.4
				l-6.087,4.563l-4.562-6.087l6.087-4.562L152.236,143.4z M146.914,136.299l-6.087,4.563l-4.562-6.086l6.086-4.562L146.914,136.299
				z M141.593,129.199l-6.087,4.562l-4.563-6.087l6.087-4.562L141.593,129.199z M136.27,122.098l-6.087,4.562l-4.561-6.085
				l6.086-4.562L136.27,122.098z M130.948,114.997l-6.087,4.563l-4.563-6.087l6.087-4.562L130.948,114.997z M125.626,107.896
				l-6.088,4.562l-4.562-6.086l6.087-4.563L125.626,107.896z M120.303,100.795l-6.086,4.562l-4.562-6.086l6.087-4.562
				L120.303,100.795z M114.981,93.695l-6.086,4.562l-4.563-6.087l6.086-4.563L114.981,93.695z M146.925,104.607l5.479-4.106
				l4.561,6.085l-5.478,4.106L146.925,104.607z M152.247,111.708l5.478-4.107l4.563,6.087l-5.479,4.107L152.247,111.708z
				 M157.568,118.809l5.48-4.106l4.561,6.086l-5.479,4.106L157.568,118.809z M162.89,125.91l5.479-4.106l4.563,6.087l-5.479,4.106
				L162.89,125.91z M168.213,133.01l5.478-4.107l4.563,6.087l-5.479,4.106L168.213,133.01z M173.535,140.111l5.479-4.106
				l4.562,6.086l-5.479,4.107L173.535,140.111z M178.856,147.212l5.479-4.106l4.563,6.087l-5.48,4.106L178.856,147.212z
				 M129.179,95.727l6.088-4.562l4.561,6.086l-6.087,4.563L129.179,95.727z M134.502,102.828l6.087-4.562l4.561,6.086l-6.086,4.562
				L134.502,102.828z M139.824,109.929l6.087-4.562l4.561,6.085l-6.086,4.563L139.824,109.929z M145.146,117.029l6.086-4.562
				l4.561,6.087l-6.086,4.562L145.146,117.029z M150.468,124.13l6.087-4.562l4.563,6.086l-6.087,4.561L150.468,124.13z
				 M155.79,131.231l6.086-4.562l4.563,6.086l-6.086,4.561L155.79,131.231z M161.112,138.332l6.086-4.562l4.563,6.087l-6.086,4.562
				L161.112,138.332z M166.434,145.433l6.086-4.562l4.563,6.086l-6.087,4.562L166.434,145.433z M171.757,152.533l6.087-4.562
				l4.563,6.087l-6.087,4.562L171.757,152.533z M177.079,159.635l6.087-4.563l4.561,6.086l-6.086,4.563L177.079,159.635z
				 M182.401,166.735l6.086-4.561l4.563,6.086l-6.088,4.562L182.401,166.735z M190.815,180.075l-6.086,4.561l-4.107-5.479
				l6.086-4.561L190.815,180.075z M185.948,173.582l-6.086,4.561l-4.562-6.085l6.086-4.562L185.948,173.582z M180.626,166.481
				l-6.086,4.561l-4.561-6.086l6.086-4.562L180.626,166.481z M175.305,159.38l-6.086,4.561l-4.563-6.087l6.086-4.561L175.305,159.38
				z M169.981,152.279l-6.086,4.561l-4.561-6.086l6.086-4.561L169.981,152.279z M164.66,145.179l-6.086,4.562l-4.563-6.087
				l6.086-4.562L164.66,145.179z M159.339,138.078l-6.088,4.561l-4.561-6.087l6.086-4.561L159.339,138.078z M154.016,130.977
				l-6.086,4.562l-4.561-6.086l6.086-4.562L154.016,130.977z M148.694,123.877l-6.086,4.562l-4.563-6.087l6.086-4.562
				L148.694,123.877z M143.371,116.775l-6.086,4.562l-4.561-6.086l6.086-4.562L143.371,116.775z M138.05,109.674l-6.086,4.562
				l-4.563-6.087l6.086-4.561L138.05,109.674z M132.727,102.573l-6.086,4.562l-4.562-6.086l6.085-4.562L132.727,102.573z
				 M122.844,89.387l4.561,6.085l-6.085,4.562l-4.562-6.086L122.844,89.387z"/>
		</g>
		<path style="fill:#259DAB;" d="M178.517,111.738l0.004-0.005c-0.125-0.152-0.254-0.301-0.378-0.453
			c-0.203-0.241-0.405-0.484-0.61-0.726c-0.171-0.203-0.343-0.406-0.517-0.607l0.001-0.001c-0.114-0.132-0.23-0.262-0.344-0.395
			c-0.264-0.301-0.525-0.604-0.789-0.903c-0.012-0.011-0.021-0.023-0.033-0.035c-0.061-0.07-0.121-0.139-0.184-0.207
			c-0.045-0.05-0.091-0.1-0.136-0.151c-0.528-0.588-1.061-1.168-1.6-1.741c-0.028-0.031-0.056-0.063-0.083-0.092l-0.002,0.001
			c-2.205-2.348-4.486-4.569-6.84-6.653l-0.002,0.003c-28.372-25.145-66.402-30.943-92.078-11.7
			c-30.416,22.797-31.972,72.098-3.477,110.117c1.655,2.208,3.377,4.328,5.155,6.358c0.036,0.04,0.069,0.082,0.104,0.123
			c0.367,0.417,0.736,0.827,1.106,1.235c0.104,0.115,0.203,0.23,0.308,0.344c0.316,0.346,0.637,0.687,0.957,1.029
			c0.037,0.038,0.073,0.078,0.109,0.116c-0.001,0.001-0.002,0.001-0.002,0.001c0.031,0.034,0.065,0.068,0.098,0.102
			c0.09,0.095,0.178,0.191,0.268,0.287c0.219,0.231,0.443,0.458,0.665,0.687c0.161,0.167,0.323,0.334,0.483,0.5
			c0.1,0.102,0.197,0.203,0.297,0.303c0.19,0.194,0.385,0.384,0.576,0.576c0.19,0.188,0.379,0.376,0.568,0.562
			c0.104,0.102,0.206,0.207,0.311,0.308c0.021,0.02,0.04,0.04,0.059,0.058l0,0c0.132,0.124,0.262,0.249,0.395,0.374
			c0.23,0.223,0.462,0.444,0.693,0.665c0.243,0.229,0.487,0.456,0.732,0.683c0.246,0.228,0.492,0.456,0.738,0.68
			c0.112,0.102,0.223,0.205,0.334,0.307l0.003-0.004c28.438,25.623,66.844,31.659,92.712,12.271
			c30.416-22.796,31.971-72.098,3.475-110.118C180.594,114.303,179.563,113.009,178.517,111.738z M172.768,218.616
			c-23.266,17.438-57.85,11.934-83.365-11.236c-0.049-0.046-0.102-0.091-0.15-0.136c-0.366-0.334-0.729-0.673-1.092-1.014
			c-0.088-0.083-0.175-0.166-0.264-0.249c-0.342-0.326-0.684-0.654-1.023-0.987c-0.105-0.103-0.211-0.207-0.315-0.311
			c-0.327-0.324-0.654-0.649-0.98-0.978c0,0-0.001-0.002-0.003-0.003c-0.102-0.105-0.204-0.211-0.305-0.316
			c-0.313-0.322-0.627-0.645-0.938-0.971c-0.041-0.047-0.085-0.092-0.127-0.136c-0.396-0.42-0.789-0.843-1.179-1.272
			c-0.059-0.066-0.119-0.132-0.178-0.198c-0.415-0.458-0.827-0.921-1.234-1.39c-0.037-0.043-0.073-0.083-0.107-0.126
			c-0.434-0.497-0.861-1.003-1.286-1.513c-0.015-0.018-0.03-0.036-0.044-0.053c-0.443-0.535-0.885-1.076-1.318-1.624l0,0
			c-0.573-0.72-1.141-1.448-1.697-2.189c-25.541-34.077-24.146-78.265,3.117-98.698c22.891-17.158,56.741-12.101,82.127,10.138
			c0.307,0.268,0.612,0.539,0.916,0.813c0.182,0.162,0.362,0.325,0.542,0.49c0.302,0.276,0.603,0.557,0.902,0.838
			c0.177,0.166,0.354,0.331,0.53,0.499c0.313,0.298,0.622,0.602,0.933,0.904c0.157,0.155,0.317,0.306,0.472,0.462
			c0.443,0.439,0.882,0.884,1.317,1.335c0.168,0.172,0.332,0.349,0.497,0.523c0.289,0.303,0.578,0.606,0.864,0.915
			c0.219,0.235,0.436,0.476,0.653,0.713c0.158,0.175,0.318,0.351,0.476,0.528c0.081,0.089,0.161,0.178,0.24,0.267
			c0.212,0.238,0.421,0.479,0.632,0.718c0.173,0.201,0.346,0.401,0.52,0.601c0.191,0.225,0.384,0.447,0.571,0.673
			c0.291,0.345,0.579,0.694,0.866,1.045c0.866,1.058,1.718,2.134,2.548,3.241C201.425,153.994,200.03,198.184,172.768,218.616z"/>
		<path style="fill:#FFFFFF;" d="M78.601,93.562c26.825-20.106,68.334-10.313,94.096,21.669c-0.627-0.901-1.27-1.799-1.936-2.688
			c-24.999-33.354-66.459-42.116-94.019-21.46c-27.559,20.657-27.158,64.901-8.428,93.478c5.075,7.745,10.933,15.112,19.659,23.691
			c-3.213-3.757-15.677-17.916-21.495-29.117C50.128,147.669,54.577,111.566,78.601,93.562z"/>
		<path style="fill:#9D9D9C;" d="M176.576,223.04c-28.069,21.038-60.921,7.469-73.871,2.333
			c24.016,15.902,53.817,16.57,75.729,0.146c24.018-18.001,28.428-52.207,18.457-79.682
			C200.989,162.134,201.711,204.201,176.576,223.04z"/>
		<path style="fill:#2B242A;" d="M219.079,263.386c0.721,0.963,0.414,2.412-0.689,3.238l-12.09,9.061
			c-1.103,0.826-2.58,0.715-3.302-0.248l0,0c-0.721-0.961-0.413-2.41,0.689-3.237l12.09-9.062
			C216.88,262.313,218.358,262.425,219.079,263.386L219.079,263.386z"/>
		
			<rect x="205.666" y="269.781" transform="matrix(0.8002 -0.5997 0.5997 0.8002 -121.4807 183.3824)" style="fill:#161013;" width="17.646" height="8.468"/>
		<path style="fill:#2B242A;" d="M225.067,271.378c0.721,0.961,0.413,2.41-0.688,3.236l-12.092,9.063
			c-1.102,0.826-2.579,0.714-3.3-0.247l0,0c-0.722-0.963-0.414-2.412,0.688-3.238l12.09-9.061
			C222.87,270.304,224.347,270.415,225.067,271.378L225.067,271.378z"/>
	</g>
	<g>
		<path style="fill:#D4D921;" d="M247.737,258.294c0,19.199-15.566,34.764-34.764,34.764c-19.199,0-34.765-15.564-34.765-34.764
			c0-19.2,15.566-34.764,34.765-34.764C232.172,223.53,247.737,239.094,247.737,258.294z"/>
		<path style="fill:#C1CCBC;" d="M190.807,269.686c-4.714-8.567-5.132-19.178-3.105-28.594c0.703-3.271,1.702-6.465,3.036-9.518
			c-7.654,6.377-12.528,15.979-12.528,26.72c0,19.199,15.566,34.764,34.765,34.764c6.116,0,11.859-1.585,16.852-4.359
			C214.683,290.197,198.286,283.277,190.807,269.686z"/>
		<g>
			<path style="fill:#C1CCBC;" d="M194.106,287.486c0.811-0.022,1.677-0.173,2.519-0.512l0.323-0.135l0.081-0.035
				c-0.053,0.029,0.118-0.061,0.11-0.057l0.029-0.015l0.118-0.063c0.163-0.089,0.304-0.156,0.489-0.265
				c0.211-0.135,0.422-0.274,0.633-0.419c0.202-0.145,0.369-0.29,0.555-0.44c1.441-1.222,2.505-2.943,3.141-4.741
				c0.66-1.807,1.005-3.706,1.189-5.632c0.186-1.93,0.207-3.896,0.123-5.887c-0.082-1.991-0.257-4.01-0.48-6.049
				c-0.115-1.003-0.232-2.018-0.351-3.042c-0.065-0.524-0.096-0.983-0.146-1.477c-0.036-0.493-0.073-0.989-0.11-1.487
				c-0.248-3.966-0.089-8.098,1.104-11.762c0.288-0.918,0.671-1.781,1.09-2.612c0.421-0.831,0.92-1.603,1.495-2.305
				c1.132-1.421,2.57-2.558,4.21-3.414c1.643-0.859,3.489-1.417,5.4-1.777l1.506-0.237l1.363-0.127
				c0.48-0.016,0.959-0.032,1.438-0.048c0.476,0.017,0.951,0.033,1.426,0.05c1.895,0.104,3.744,0.468,5.485,1.07
				c1.742,0.591,3.401,1.398,4.87,2.474c1.475,1.059,2.839,2.28,3.982,3.694c1.195,1.365,2.152,2.92,3.03,4.474l0.169,0.288
				c-0.053-0.117-0.003-0.009-0.011-0.025l0.02,0.04l0.039,0.08l0.076,0.161l0.307,0.638c0.203,0.424,0.405,0.845,0.605,1.263
				c0.438,0.846,0.709,1.633,1.026,2.422c0.156,0.394,0.31,0.785,0.464,1.172c0.145,0.395,0.261,0.804,0.391,1.2
				c0.127,0.398,0.253,0.794,0.377,1.185c0.061,0.196,0.122,0.392,0.182,0.586c0.048,0.198,0.095,0.395,0.143,0.591
				c0.842,3.115,1.213,6.082,1.339,8.715c0.128,2.636,0.022,4.948-0.177,6.838c-0.108,0.995-0.068,2.354-0.197,3.107
				c1.696-3.106,3.461-7.51,3.873-11.527c-0.086-2.341-1.275-5.174-1.829-7.867c-0.038-0.213-0.077-0.428-0.116-0.644
				c-0.052-0.211-0.104-0.425-0.156-0.64c-0.104-0.43-0.21-0.864-0.315-1.302c-0.11-0.438-0.204-0.882-0.332-1.329
				c-0.14-0.446-0.281-0.896-0.425-1.351c-0.287-0.904-0.57-1.864-0.922-2.698c-0.167-0.434-0.336-0.87-0.506-1.309l-0.256-0.662
				l-0.064-0.166l-0.032-0.083l-0.017-0.042c-0.018-0.043,0.019,0.038-0.046-0.107l-0.163-0.342
				c-0.852-1.835-1.814-3.712-3.104-5.458c-1.221-1.79-2.787-3.414-4.539-4.867c-1.748-1.473-3.81-2.605-5.973-3.479
				c-2.178-0.851-4.493-1.373-6.838-1.574c-4.702-0.323-9.448,0.434-13.896,2.738c-2.201,1.17-4.254,2.817-5.838,4.851
				c-0.803,1.005-1.49,2.098-2.054,3.232c-0.567,1.131-1.038,2.301-1.381,3.482c-0.71,2.361-1.053,4.739-1.181,7.049
				c-0.142,2.313-0.046,4.563,0.134,6.747c0.05,0.546,0.106,1.082,0.171,1.625c0.071,0.537,0.137,1.107,0.215,1.6
				c0.153,1.013,0.306,2.017,0.456,3.009c0.286,1.956,0.518,3.859,0.659,5.699c0.135,1.837,0.205,3.615,0.124,5.287
				c-0.075,1.672-0.3,3.242-0.722,4.597c-0.415,1.363-1.05,2.459-1.841,3.24c-0.101,0.089-0.206,0.199-0.299,0.274
				c-0.091,0.068-0.178,0.139-0.264,0.214c-0.121,0.085-0.298,0.187-0.442,0.278l-0.114,0.071l-0.002,0.001l-0.017,0.007
				l-0.159,0.08c-0.428,0.208-0.888,0.327-1.371,0.371c-0.482,0.048-0.99,0.007-1.488-0.081c-0.5-0.085-0.995-0.215-1.47-0.387
				c-0.952-0.326-1.821-0.779-2.591-1.219c-0.455-0.268-0.869-0.532-1.256-0.79C189.152,283.793,191.512,285.806,194.106,287.486z"
				/>
		</g>
		<g>
			<path style="fill:#FFFFFF;" d="M196.023,285.806l0.335-0.136l0.082-0.035c-0.053,0.03,0.123-0.061,0.115-0.057l0.031-0.015
				l0.121-0.063c0.17-0.089,0.314-0.156,0.507-0.265c0.218-0.135,0.437-0.274,0.653-0.419c0.21-0.145,0.383-0.29,0.576-0.44
				c1.49-1.223,2.591-2.943,3.248-4.742c0.683-1.806,1.04-3.706,1.231-5.632c0.19-1.93,0.214-3.895,0.127-5.887
				c-0.085-1.991-0.265-4.01-0.497-6.05c-0.12-1.003-0.241-2.017-0.363-3.041c-0.066-0.524-0.1-0.983-0.149-1.477
				c-0.038-0.493-0.076-0.989-0.115-1.487c-0.256-3.967-0.091-8.098,1.144-11.763c0.297-0.917,0.693-1.781,1.127-2.611
				c0.436-0.83,0.953-1.602,1.548-2.305c1.171-1.421,2.659-2.557,4.356-3.414c1.698-0.858,3.609-1.417,5.587-1.777l1.559-0.237
				l1.41-0.128c0.495-0.016,0.991-0.031,1.486-0.047c0.492,0.017,0.984,0.033,1.476,0.05c1.961,0.104,3.875,0.468,5.676,1.07
				c1.803,0.591,3.52,1.398,5.039,2.473c1.526,1.059,2.938,2.28,4.119,3.695c1.237,1.365,2.228,2.92,3.136,4.473l0.175,0.289
				c-0.054-0.117-0.003-0.01-0.01-0.025l0.02,0.04l0.04,0.081l0.079,0.16l0.317,0.639c0.211,0.424,0.419,0.845,0.627,1.262
				c0.451,0.847,0.732,1.635,1.061,2.424c0.162,0.394,0.322,0.785,0.482,1.172c0.149,0.394,0.27,0.804,0.404,1.2
				c0.132,0.398,0.261,0.794,0.39,1.185c0.063,0.196,0.126,0.392,0.188,0.587c0.05,0.197,0.098,0.394,0.146,0.59
				c0.872,3.116,1.256,6.082,1.387,8.715c0.133,2.637,0.021,4.949-0.184,6.839c-0.112,0.995-0.246,1.869-0.381,2.624
				c1.676-3.49,2.783-7.303,3.209-11.32c-0.089-2.341-0.346-4.897-0.918-7.59c-0.039-0.213-0.08-0.428-0.119-0.643
				c-0.054-0.213-0.108-0.426-0.162-0.641c-0.107-0.43-0.217-0.864-0.326-1.302c-0.115-0.438-0.212-0.882-0.344-1.329
				c-0.145-0.446-0.291-0.896-0.439-1.35c-0.299-0.905-0.59-1.865-0.954-2.699c-0.174-0.433-0.348-0.869-0.524-1.309l-0.265-0.661
				l-0.067-0.167l-0.033-0.083l-0.017-0.041c-0.02-0.043,0.02,0.037-0.047-0.107l-0.17-0.342c-0.881-1.835-1.877-3.712-3.21-5.458
				c-1.264-1.79-2.885-3.413-4.697-4.866c-1.808-1.474-3.941-2.605-6.18-3.479c-2.253-0.851-4.65-1.373-7.074-1.575
				c-4.866-0.322-9.776,0.434-14.38,2.738c-2.276,1.17-4.4,2.818-6.04,4.85c-0.83,1.005-1.541,2.099-2.125,3.232
				c-0.587,1.131-1.073,2.301-1.429,3.482c-0.733,2.361-1.089,4.739-1.222,7.048c-0.145,2.314-0.048,4.563,0.139,6.747
				c0.052,0.546,0.11,1.083,0.177,1.626c0.074,0.537,0.141,1.107,0.223,1.6c0.158,1.012,0.316,2.017,0.472,3.009
				c0.296,1.956,0.535,3.859,0.683,5.699c0.139,1.838,0.213,3.615,0.127,5.287c-0.077,1.671-0.31,3.242-0.746,4.596
				c-0.43,1.365-1.086,2.459-1.904,3.24c-0.104,0.09-0.214,0.199-0.311,0.275c-0.092,0.067-0.183,0.139-0.271,0.214
				c-0.125,0.085-0.309,0.187-0.458,0.278l-0.118,0.07l-0.003,0.001l-0.017,0.008l-0.165,0.079
				c-0.441,0.208-0.917,0.327-1.419,0.372c-0.5,0.048-1.023,0.007-1.539-0.081c-0.517-0.085-1.03-0.216-1.52-0.387
				c-0.986-0.326-1.885-0.779-2.681-1.219c-0.527-0.3-1.006-0.596-1.446-0.882c1.849,2.267,3.978,4.296,6.333,6.036
				c0.322,0.031,0.655,0.049,1.001,0.044C194.208,286.307,195.13,286.154,196.023,285.806z"/>
		</g>
		<path style="opacity:0.4;fill:#FFFFFF;" d="M244.408,251.391c0,14.094-11.427,25.52-25.521,25.52
			c-14.095,0-25.521-11.426-25.521-25.52c0-14.095,11.426-25.521,25.521-25.521C232.981,225.87,244.408,237.296,244.408,251.391z"/>
		
			<ellipse transform="matrix(0.7071 -0.7071 0.7071 0.7071 -110.7206 229.6207)" style="opacity:0.4;fill:#FFFFFF;" cx="221.816" cy="248.462" rx="19.978" ry="19.978"/>
		<path style="opacity:0.4;fill:#FFFFFF;" d="M240.365,244.145c0,7.861-6.373,14.232-14.233,14.232
			c-7.859,0-14.232-6.372-14.232-14.232c0-7.859,6.372-14.232,14.232-14.232C233.992,229.913,240.365,236.286,240.365,244.145z"/>
	</g>
</g>
</svg>
